<?xml version="1.0" encoding="UTF-8"?>
<svg version="1.1" xmlns="http://www.w3.org/2000/svg" width="122" height="229">
<path d="M0 0 C1.10237503 -0.01283524 2.20475006 -0.02567047 3.3405304 -0.03889465 C4.54452988 -0.04628159 5.74852936 -0.05366852 6.98901367 -0.0612793 C8.2243132 -0.06935104 9.45961273 -0.07742279 10.73234558 -0.08573914 C13.35952523 -0.09960913 15.98657823 -0.11061377 18.61376953 -0.11816406 C22.60176475 -0.1312793 26.5891353 -0.17911036 30.5769043 -0.22338867 C33.13093466 -0.23352534 35.68497209 -0.24203839 38.23901367 -0.2487793 C39.42074661 -0.26628738 40.60247955 -0.28379547 41.82002258 -0.30183411 C53.2301567 -0.27247642 63.35913699 2.27624191 71.84448242 10.17700195 C72.87895508 11.13219727 72.87895508 11.13219727 73.93432617 12.10668945 C87.04629269 25.4384096 87.18034685 44.26677932 87.15161133 61.8359375 C87.01816993 70.59088246 86.07528384 78.70204143 83.84448242 87.17700195 C83.65112305 87.96719727 83.45776367 88.75739258 83.25854492 89.5715332 C80.684565 98.04560997 73.21776312 106.40605562 65.84448242 111.17700195 C59.39707172 114.28575347 53.36043392 116.22693993 46.20385742 116.4934082 C45.13393555 116.53530273 44.06401367 116.57719727 42.96166992 116.62036133 C41.85049805 116.65967773 40.73932617 116.69899414 39.59448242 116.73950195 C38.4678418 116.78268555 37.34120117 116.82586914 36.18041992 116.87036133 C33.40189288 116.97632211 30.62327852 117.07839337 27.84448242 117.17700195 C27.84670303 118.07014099 27.84892365 118.96328003 27.85121155 119.88348389 C27.87124738 128.29987117 27.88647339 136.71625045 27.89629459 145.1326561 C27.90151349 149.45962288 27.90859316 153.78656995 27.91992188 158.11352539 C27.93078597 162.28914839 27.93676675 166.46475244 27.93935966 170.64038849 C27.94120755 172.23358712 27.94481597 173.82678472 27.95021248 175.41997528 C27.95746963 177.65118147 27.95847138 179.8823093 27.95800781 182.11352539 C27.96022842 183.38371521 27.96244904 184.65390503 27.96473694 185.96258545 C27.86634955 188.5924912 27.77815862 190.72756315 26.84448242 193.17700195 C23.93396042 194.63226295 21.36891832 194.30686083 18.12182617 194.30981445 C17.46114639 194.31077118 16.80046661 194.31172791 16.11976624 194.31271362 C14.72356064 194.31339411 13.32735186 194.31154896 11.93115234 194.30737305 C9.78695629 194.30201438 7.6429689 194.30732674 5.4987793 194.3137207 C4.14396112 194.31306007 2.78914308 194.3117792 1.43432617 194.30981445 C0.19545654 194.30868652 -1.04341309 194.30755859 -2.31982422 194.30639648 C-5.15551758 194.17700195 -5.15551758 194.17700195 -6.15551758 193.17700195 C-6.25544768 190.7003797 -6.2899338 188.25158391 -6.28250122 185.77441406 C-6.28484121 184.59812769 -6.28484121 184.59812769 -6.28722847 183.39807796 C-6.29124161 180.75014853 -6.28804762 178.10227565 -6.28491211 175.4543457 C-6.28626601 173.56421881 -6.28804588 171.67409219 -6.29022217 169.78396606 C-6.29479782 164.63535547 -6.2930064 159.48676481 -6.28984308 154.33815384 C-6.28732016 148.96274001 -6.28965683 143.58732795 -6.29122925 138.21191406 C-6.29305114 129.18302095 -6.29064411 120.15413601 -6.28588867 111.12524414 C-6.28044601 100.67051126 -6.28220866 90.21579789 -6.28771508 79.76106548 C-6.29224564 70.80229112 -6.29289703 61.84352264 -6.29027641 52.88474751 C-6.28871332 47.52642306 -6.28852073 42.1681078 -6.2918129 36.80978394 C-6.29469079 31.77347776 -6.29271743 26.73719684 -6.28691864 21.7008934 C-6.2855906 19.84687212 -6.28598589 17.99284873 -6.2881813 16.13882828 C-6.2908911 13.61905293 -6.2875138 11.09935987 -6.28250122 8.57958984 C-6.2858473 7.46438918 -6.2858473 7.46438918 -6.28926098 6.3266592 C-6.26586389 0.31364933 -5.91658034 0.05978753 0 0 Z M27.84448242 30.17700195 C26.84326071 33.18066709 26.72336232 35.15439789 26.73095703 38.29101562 C26.73103256 39.33186813 26.73110809 40.37272064 26.73118591 41.44511414 C26.7363472 42.5670668 26.74150848 43.68901947 26.74682617 44.8449707 C26.74824112 45.9949202 26.74965607 47.14486969 26.75111389 48.32966614 C26.75671814 52.00797104 26.76927138 55.6862154 26.78198242 59.36450195 C26.78699687 61.85603753 26.79155988 64.34757407 26.7956543 66.83911133 C26.80668895 72.95176224 26.82343124 79.06437777 26.84448242 85.17700195 C32.04405246 87.77678697 39.44043527 86.56013635 44.84448242 84.98950195 C47.68782857 83.89786013 48.77511369 83.25504177 50.84448242 80.92700195 C53.41279224 73.86414996 53.02757269 66.34416675 53.03198242 58.92700195 C53.05035156 57.32405273 53.05035156 57.32405273 53.0690918 55.6887207 C53.42390204 43.30888127 53.42390204 43.30888127 48.53198242 32.55200195 C43.76736727 30.11429188 39.32576185 30.06102943 34.03198242 30.11450195 C32.87053711 30.12352539 31.7090918 30.13254883 30.51245117 30.1418457 C29.63202148 30.15344727 28.7515918 30.16504883 27.84448242 30.17700195 Z " fill="#D81F2B" transform="translate(22.155517578125,17.822998046875)"/>
<path d="M0 0 C0.33 0 0.66 0 1 0 C1 63.03 1 126.06 1 191 C0.67 191 0.34 191 0 191 C0 127.97 0 64.94 0 0 Z " fill="#820000" transform="translate(121,20)"/>
</svg>
